<svg width="80" height="80" viewBox="0 0 80 80" fill="none" xmlns="http://www.w3.org/2000/svg">
<path fill="#FF8A3D" fill-rule="evenodd" clip-rule="evenodd" d="M36.6667 13.3332C23.7801 13.3332 13.3334 23.7799 13.3334 36.6665C13.3334 49.5531 23.7801 59.9998 36.6667 59.9998C49.5534 59.9998 60.0001 49.5531 60.0001 36.6665C60.0001 23.7799 49.5534 13.3332 36.6667 13.3332ZM6.66675 36.6665C6.66675 20.098 20.0982 6.6665 36.6667 6.6665C53.2353 6.6665 66.6667 20.098 66.6667 36.6665C66.6667 53.235 53.2353 66.6665 36.6667 66.6665C20.0982 66.6665 6.66675 53.235 6.66675 36.6665Z"/>
<path fill="#FF8A3D" fill-rule="evenodd" clip-rule="evenodd" d="M53.1431 53.1428C54.4448 51.8411 56.5554 51.8411 57.8571 53.1428L72.3571 67.6428C73.6589 68.9446 73.6589 71.0551 72.3571 72.3569C71.0554 73.6586 68.9448 73.6586 67.6431 72.3569L53.1431 57.8569C51.8413 56.5551 51.8413 54.4446 53.1431 53.1428Z"/>
</svg>
