<svg xmlns="http://www.w3.org/2000/svg" viewBox="0 0 208.08 58.26"><defs><style>.cls-1{fill:#ff8a3d;}.cls-2{fill:#56c271;}</style></defs><title>logo</title><g id="Layer_2" data-name="Layer 2"><g id="Layer_1-2" data-name="Layer 1"><path class="cls-1" d="M22.1,10.79A22.08,22.08,0,0,0,4.68,46.46l.69.85c.35.4.7.8,1.08,1.18l0,0A35.78,35.78,0,0,0,22.1,58.26a35.78,35.78,0,0,0,15.62-9.73l0,0c.38-.38.73-.78,1.08-1.18l.69-.85A22.08,22.08,0,0,0,22.1,10.79Zm0,30.55a8.45,8.45,0,1,1,8.45-8.45A8.45,8.45,0,0,1,22.1,41.34Z"/><path class="cls-2" d="M29.29,10.32A3.25,3.25,0,0,0,28.6,3.9a3.17,3.17,0,0,0-1.4.33,5.19,5.19,0,0,0-10.2,0,3.17,3.17,0,0,0-1.4-.33,3.25,3.25,0,0,0-.69,6.42,21.8,21.8,0,0,1,14.38,0Z"/><path class="cls-1" d="M60,33.22H73.5a2.83,2.83,0,0,0,3-3.09,2.84,2.84,0,0,0-3-3.1H61.75a.88.88,0,0,1-1-.93V20.8a.88.88,0,0,1,1-.93H73.5a2.83,2.83,0,0,0,3-3.09,2.84,2.84,0,0,0-3-3.1H60c-4.6,0-6.76,2-6.76,5.88v7.78C53.22,31.19,55.38,33.22,60,33.22Z"/><path class="cls-1" d="M76.9,35.69H63.6c-6,0-9.94,3.32-9.94,8.14s3.93,8,9.94,8H76.9c6,0,10-3.32,10-8S82.91,35.69,76.9,35.69Zm0,10H63.6c-1.46,0-2.25-.8-2.25-1.81s.79-1.9,2.25-1.9H76.9c1.46,0,2.3.83,2.3,1.9S78.36,45.64,76.9,45.64Z"/><path class="cls-1" d="M88.17,20H86.05V15.94c0-1.77-1.54-3.1-3.75-3.1s-3.8,1.33-3.8,3.1V31.67c0,1.77,1.59,3.1,3.8,3.1s3.75-1.33,3.75-3.1V27.39h2.12c1.73,0,3.1-1.51,3.1-3.67S89.9,20,88.17,20Z"/><path class="cls-1" d="M125.94,36.67H95.05a3.14,3.14,0,0,1-3.27-3.36A3.17,3.17,0,0,1,95.05,30h30.89a3.17,3.17,0,0,1,3.27,3.32A3.14,3.14,0,0,1,125.94,36.67Zm-6.36-10.88v-4a1,1,0,0,0-1-1.1H97.13a3.27,3.27,0,0,1-3.45-3.45,3.39,3.39,0,0,1,3.45-3.54H120.2c4.59,0,6.93,2.39,6.93,6.59v5.52c0,1.77-1.54,3.1-3.75,3.1S119.58,27.56,119.58,25.79ZM101.46,41v2.65a.9.9,0,0,0,1,.89h22.06a3.45,3.45,0,1,1,0,6.89H100.88c-4.55,0-7-1.94-7-6V41c0-1.77,1.55-3.09,3.76-3.09S101.46,39.27,101.46,41Z"/><path class="cls-1" d="M133.07,44.49V19c0-3.49,1.77-5.31,5.39-5.31h9.86c3.62,0,5.39,1.82,5.39,5.31v25.5c0,3.49-1.77,5.3-5.39,5.3h-9.86C134.84,49.79,133.07,48,133.07,44.49Zm13.52-2.43V21.42c0-.49-.26-.8-.7-.8h-4.95c-.45,0-.71.31-.71.8V42.06a.7.7,0,0,0,.71.79h4.95A.69.69,0,0,0,146.59,42.06Zm11.76,6.54V16.16a3.5,3.5,0,0,1,3.8-3.32,3.46,3.46,0,0,1,3.76,3.32V26.77H168c1.72,0,3.09,1.63,3.09,3.71s-1.37,3.76-3.09,3.76h-2.12V48.6a3.46,3.46,0,0,1-3.76,3.31C159.94,51.91,158.35,50.46,158.35,48.6Z"/><path class="cls-1" d="M190.48,21.68H192V15.85c0-1.68,1.37-2.83,3.45-2.83s3.36,1.15,3.36,2.83V33.31c0,1.68-1.29,2.83-3.36,2.83S192,35,192,33.31V28.18h-1.55A2.43,2.43,0,0,1,188.4,27a20.83,20.83,0,0,1-10.82,10.56,3.31,3.31,0,0,1-4.33-1.28,2.92,2.92,0,0,1,1.1-4.15A15.57,15.57,0,0,0,180,28.05H176.3a2.5,2.5,0,0,1-2.66-2.7,2.56,2.56,0,0,1,2.66-2.69h6.49a13.59,13.59,0,0,0,.44-2.13.75.75,0,0,0-.75-1h-6a2.66,2.66,0,0,1-2.88-2.91,2.75,2.75,0,0,1,2.88-3h7.24c4.82,0,7,2.3,6.32,7.47,0,.18,0,.4-.08.58A1.57,1.57,0,0,1,190.48,21.68ZM204,51.21a35.72,35.72,0,0,1-13.66-6.37A24.88,24.88,0,0,1,178,51.43,3.43,3.43,0,0,1,174,49a3.06,3.06,0,0,1,2.08-4c5.08-1.32,9.33-4.28,11.45-8.22a3.76,3.76,0,0,1,4.46-1.37c2.12.67,3,2.65,2.34,4.07l0,.09a28.64,28.64,0,0,0,11.62,5.26,3,3,0,0,1,2.08,3.93A3.26,3.26,0,0,1,204,51.21Zm-3.5-16.71V15.67c0-1.68,1.42-2.83,3.54-2.83s3.49,1.15,3.49,2.83V34.5c0,1.68-1.37,2.83-3.49,2.83S200.51,36.18,200.51,34.5Z"/></g></g></svg>