<?xml version="1.0" encoding="utf-8"?>
<!-- Generator: Adobe Illustrator 16.0.3, SVG Export Plug-In . SVG Version: 6.00 Build 0)  -->
<!DOCTYPE svg PUBLIC "-//W3C//DTD SVG 1.1//EN" "http://www.w3.org/Graphics/SVG/1.1/DTD/svg11.dtd">
<svg version="1.1" id="Capa_1" xmlns="http://www.w3.org/2000/svg" xmlns:xlink="http://www.w3.org/1999/xlink" x="0px" y="0px"
	 width="77.5px" height="37.125px" viewBox="184.765 396.32 77.5 37.125" enable-background="new 184.765 396.32 77.5 37.125"
	 xml:space="preserve">
<g>
	<path fill="#777777" d="M204.894,398.343c-8.757,0-15.882,7.125-15.882,15.882c0,8.758,7.125,15.882,15.882,15.882
		c8.758,0,15.883-7.124,15.883-15.882C220.777,405.467,213.652,398.343,204.894,398.343z M204.894,428.886
		c-8.083,0-14.66-6.577-14.66-14.661s6.577-14.661,14.66-14.661c8.084,0,14.661,6.577,14.661,14.661
		S212.978,428.886,204.894,428.886z"/>
</g>
<g>
	<path fill="#077AF4" d="M245.327,398.343c-8.757,0-15.882,7.125-15.882,15.882c0,8.759,7.125,15.882,15.882,15.882
		c8.758,0,15.883-7.123,15.883-15.882C261.21,405.468,254.085,398.343,245.327,398.343z M245.327,428.887
		c-8.083,0-14.66-6.578-14.66-14.661c0-8.083,6.577-14.661,14.66-14.661c8.084,0,14.661,6.577,14.661,14.661
		C259.988,422.309,253.411,428.887,245.327,428.887z"/>
	<path fill="#077AF4" d="M252.812,407.711l-9.388,10.562l-5.656-4.524c-0.263-0.211-0.648-0.167-0.858,0.095
		c-0.211,0.264-0.168,0.648,0.095,0.859l6.108,4.887c0.113,0.09,0.248,0.134,0.382,0.134c0.169,0,0.337-0.069,0.457-0.205
		l9.774-10.996c0.224-0.251,0.201-0.638-0.051-0.862C253.422,407.436,253.036,407.458,252.812,407.711z"/>
</g>
</svg>
